Coordinates
version=1
nRows=12
nColumns=42
inDegrees=yes

Units are S.I. units (second, meters, Newtons, ...)
If the header above contains a line with 'inDegrees', this indicates whether rotational values are in degrees (yes) or radians (no).

endheader
time	pelvis_tilt	pelvis_list	pelvis_rotation	pelvis_tx	pelvis_ty	pelvis_tz	hip_flexion_r	hip_adduction_r	hip_rotation_r	knee_angle_r	knee_adduction_r	knee_angle_r_beta	ankle_angle_r	subtalar_angle_r	mtp_angle_r	hip_flexion_l	hip_adduction_l	hip_rotation_l	knee_angle_l	knee_adduction_l	knee_angle_l_beta	ankle_angle_l	subtalar_angle_l	mtp_angle_l	lumbar_extension	lumbar_bending	lumbar_rotation	arm_flex_r	arm_add_r	arm_rot_r	elbow_flex_r	pro_sup_r	wrist_flex_r	wrist_dev_r	arm_flex_l	arm_add_l	arm_rot_l	elbow_flex_l	pro_sup_l	wrist_flex_l	wrist_dev_l
      1.16000000	      8.64655084	      0.60223079	     -4.32343017	     -0.25204729	      0.98555652	      0.26894810	     11.51124260	     -5.23550000	     -6.41251696	     46.25372012	      0.94114875	      0.80727971	     16.09567320	     -4.84474274	     -7.55410906	    -13.09633956	      3.58829591	     -8.50190003	      3.84553227	      2.83439872	      0.06711720	     14.55086022	     19.02552723	     -7.55410906	    -18.07886714	      1.50996133	     -3.94039403	    -14.48584018	    -14.91200027	     12.85210232	     36.40606726	     90.00000001	      0.00000000	      0.00000000	     -0.60443475	    -16.57563700	      0.05363383	     45.77658932	     90.00000001	      0.00000000	      0.00000000
      1.17000000	      8.65557057	      0.47684430	     -4.09403953	     -0.23847389	      0.98443930	      0.26916689	     12.25277359	     -4.84953475	     -6.36435404	     42.90051533	      1.34225859	      0.74875524	     15.77064556	     -5.29478187	     -7.55149044	    -14.27380917	      3.48165950	     -8.35257352	      3.32859944	      2.82892128	      0.05809502	     15.04900542	     19.30344165	     -7.55149044	    -18.10898428	      1.70944790	     -4.14690390	    -14.98952781	    -14.55743097	     12.51381504	     36.31520080	     90.00000001	      0.00000000	      0.00000000	      0.13706358	    -16.88522620	     -0.08210255	     46.50257180	     90.00000001	      0.00000000	      0.00000000
      1.18000000	      8.49296018	      0.59174842	     -3.90496025	     -0.22500227	      0.98260575	      0.26925593	     13.16455639	     -4.79327760	     -6.38202470	     39.45151136	      1.73159727	      0.68855877	     15.65102467	     -5.11143231	     -7.55008389	    -15.16435593	      3.65134194	     -8.15282086	      2.96279416	      2.76869518	      0.05171051	     15.76760398	     19.70702615	     -7.55008389	    -17.93503609	      1.66150650	     -4.41845084	    -15.40049927	    -14.19848595	     12.32658259	     36.11280545	     90.00000001	      0.00000000	      0.00000000	      0.83356480	    -17.18836775	     -0.22853938	     47.22455467	     90.00000001	      0.00000000	      0.00000000
      1.19000000	      8.69570409	      0.49403423	     -3.72101907	     -0.21127309	      0.98104694	      0.26964978	     13.39848682	     -4.42280899	     -6.61738707	     35.51569805	      1.84597024	      0.61986587	     15.23603861	     -5.08036958	     -7.54791161	    -16.49273668	      3.56283506	     -8.14765556	      2.62391785	      2.76527458	      0.04579601	     16.38575600	     20.13491301	     -7.54791161	    -18.16808300	      1.79798270	     -4.58311257	    -15.81632600	    -13.81699854	     11.92956145	     36.00456121	     90.00000001	      0.00000000	      0.00000000	      1.56795462	    -17.46746382	     -0.36864073	     47.96842137	     90.00000001	      0.00000000	      0.00000000
      1.20000000	      8.40882707	      0.84859504	     -3.63249142	     -0.19788646	      0.97830734	      0.26979557	     14.30425793	     -4.64676414	     -6.77232150	     31.77385025	      2.09448366	      0.55455830	     14.82760052	     -4.30650898	     -7.54693888	    -17.10104737	      4.02930423	     -7.99613222	      2.53065806	      2.60525945	      0.04416832	     17.14912982	     20.44197602	     -7.54693888	    -17.85424760	      1.46752643	     -4.81637960	    -16.16658446	    -13.46826923	     11.82243736	     35.80814094	     90.00000001	      0.00000000	      0.00000000	      2.26032819	    -17.77660905	     -0.46217270	     48.66609044	     90.00000001	      0.00000000	      0.00000000
      1.21000000	      8.76070648	      0.79233634	     -3.44869422	     -0.18396902	      0.97631457	      0.27043615	     14.06115074	     -4.32437895	     -7.17930044	     27.36665390	      2.10960406	      0.47763822	     14.46795476	     -3.53298139	     -7.54517331	    -18.57638205	      3.90264872	     -8.03428782	      2.28169631	      2.73790526	      0.03982311	     17.92185193	     20.95212005	     -7.54517331	    -18.23339538	      1.51003431	     -5.02582308	    -16.47313850	    -13.03677160	     11.38710402	     35.61720764	     90.00000001	      0.00000000	      0.00000000	      2.96516925	    -18.08359719	     -0.61264390	     49.36308018	     90.00000001	      0.00000000	      0.00000000
      1.22000000	      8.83788735	      0.97801211	     -3.35082910	     -0.17023393	      0.97358173	      0.27096503	     14.15044858	     -4.30315868	     -7.50016280	     23.04883026	      2.19301753	      0.40227798	     13.87924119	     -2.41792012	     -7.54344228	    -19.62924891	      4.09813530	     -8.02458356	      2.21552677	      2.73748915	      0.03866824	     18.69431102	     21.39458601	     -7.54344228	    -18.31372227	      1.30735302	     -5.23896008	    -16.74530431	    -12.64550973	     11.07092433	     35.46381747	     90.00000001	      0.00000000	      0.00000000	      3.63461722	    -18.39055360	     -0.69305698	     50.01963352	     90.00000001	      0.00000000	      0.00000000
      1.23000000	      8.57797583	      1.50014841	     -3.28309954	     -0.15671319	      0.97007689	      0.27121461	     14.68054925	     -4.73100225	     -7.72806727	     18.96387071	      2.41571237	      0.33098198	     13.15192568	     -0.87455680	     -7.54253106	    -20.20135834	      4.71482050	     -7.84450869	      2.29012033	      2.59123962	      0.03997014	     19.49125807	     21.67527703	     -7.54253106	    -18.02133298	      0.77653061	     -5.48461568	    -17.01873812	    -12.26787291	     10.93549084	     35.31211377	     90.00000001	      0.00000000	      0.00000000	      4.29487981	    -18.66754866	     -0.75988898	     50.65366921	     90.00000001	      0.00000000	      0.00000000
      1.24000000	      8.94978157	      1.59383359	     -3.09770128	     -0.14251716	      0.96734822	      0.27193528	     14.10530772	     -4.59277775	     -8.06075967	     14.43115568	      2.41591516	      0.25187118	     12.50285563	      0.68311031	     -7.54093446	    -21.63137863	      4.73297655	     -7.90385148	      2.21969813	      2.66296749	      0.03874104	     20.20701095	     22.09238956	     -7.54093446	    -18.39449960	      0.65112267	     -5.76767817	    -17.23730492	    -11.83084909	     10.49060549	     35.16479468	     90.00000001	      0.00000000	      0.00000000	      4.91580409	    -18.96165391	     -0.84603307	     51.26982259	     90.00000001	      0.00000000	      0.00000000
      1.25000000	      8.99461997	      1.95230011	     -2.97057238	     -0.12850824	      0.96392249	      0.27245202	     14.00336815	     -4.82163182	     -8.20220385	     10.32746369	      2.58118893	      0.18024824	     11.58266302	      2.24271542	     -7.53916592	    -22.59366676	      5.07959561	     -7.82591405	      2.30629081	      2.63950618	      0.04025237	     20.93050667	     22.46775777	     -7.53916592	    -18.41264922	      0.26871145	     -6.05310038	    -17.46373376	    -11.43994089	     10.15645241	     35.08679486	     90.00000001	      0.00000000	      0.00000000	      5.50433225	    -19.24012600	     -0.87846134	     51.83589978	     90.00000001	      0.00000000	      0.00000000
      1.26000000	      8.98995511	      2.41394586	     -2.84599289	     -0.11442100	      0.96029591	      0.27291523	     14.03914844	     -5.20446588	     -8.40144369	      6.73070801	      2.75142135	      0.11747302	     10.76587887	      3.95357656	     -7.53749138	    -23.46846379	      5.54601263	     -7.69551079	      2.46608555	      2.56395811	      0.04304131	     21.61087734	     22.72501258	     -7.53749138	    -18.36932568	     -0.21676500	     -6.37231622	    -17.65189139	    -11.06446011	      9.87595156	     34.99907242	     90.00000001	      0.00000000	      0.00000000	      6.04991501	    -19.50065521	     -0.92364147	     52.34425821	     90.00000001	      0.00000000	      0.00000000
      1.27000000	      8.78710267	      3.03096038	     -2.75604742	     -0.10039669	      0.95634336	      0.27319874	     14.52525958	     -5.83142021	     -8.69977825	      3.97735742	      3.00890442	      0.06941798	     10.09428518	      5.75571648	     -7.53679093	    -24.06103742	      6.22706234	     -7.46380165	      2.73265754	      2.36844618	      0.04769387	     22.27033544	     22.86850702	     -7.53679093	    -18.11686166	     -0.84817946	     -6.68143055	    -17.81631171	    -10.75193770	      9.76684025	     34.93440520	     90.00000001	      0.00000000	      0.00000000	      6.57544151	    -19.69278002	     -0.98304069	     52.77693131	     90.00000001	      0.00000000	      0.00000000
